# xmcd
#
# Track frame offsets: 
#        150
#        10321
#        24689
#        35103
#        46547
#        58160
#        70592
#        81410
#        95318
#        106402
#        117759
#        129502
#
# Disc length: 1891 seconds
#
# Revision: 0
# Processed by: cddbd v1.5.2PL0 Copyright (c) Steve Scherf et al.
# Submitted via: ExactAudioCopy v0.99pb4
#
DISCID=9907610c
DTITLE=Charley Pride - The Best of Charley Pride
DYEAR=1969
DGENRE=Classic Country
TTITLE0=Just Between You and Me
TTITLE1=Kaw-Liga
TTITLE2=Does My Ring Hurt Your Finger
TTITLE3=Gone, on the Other Hand
TTITLE4=The Day the World Stood Still
TTITLE5=The Snakes Crawl at Night
TTITLE6=The Easy Part's Over
TTITLE7=All I Have to Offer You (Is Me)
TTITLE8=I Know One
TTITLE9=Before I Met You
TTITLE10=Too Hard to Say I'm Sorry
TTITLE11=Let the Chips Fall
EXTD=
EXTT0=
EXTT1=
EXTT2=
EXTT3=
EXTT4=
EXTT5=
EXTT6=
EXTT7=
EXTT8=
EXTT9=
EXTT10=
EXTT11=
PLAYORDER=
